<?xml version="1.0" encoding="utf-8"?>
<!-- Generator: Adobe Illustrator 24.1.0, SVG Export Plug-In . SVG Version: 6.00 Build 0)  -->
<svg version="1.1" id="Ebene_1" xmlns="http://www.w3.org/2000/svg" xmlns:xlink="http://www.w3.org/1999/xlink" x="0px" y="0px"
	 viewBox="0 0 16 6" style="enable-background:new 0 0 16 6;" xml:space="preserve">
<style type="text/css">
	.st0{fill:#A6A6A6;}
	.st1{fill:#FFFFFF;}
</style>
<path class="st0" d="M15,0.1H1c0,0-0.1,0-0.1,0c0,0-0.1,0-0.1,0c-0.1,0-0.1,0-0.2,0c-0.1,0-0.1,0-0.2,0.1c-0.1,0-0.1,0.1-0.2,0.1
	c0,0-0.1,0.1-0.1,0.2C0.1,0.5,0,0.6,0,0.6c0,0.1,0,0.1,0,0.2c0,0,0,0.1,0,0.1C0,1,0,1,0,1.1v3.9C0,5,0,5,0,5.1c0,0,0,0.1,0,0.1
	c0,0.1,0,0.1,0,0.2c0,0.1,0,0.1,0.1,0.2c0,0.1,0.1,0.1,0.1,0.2c0,0,0.1,0.1,0.2,0.1c0.1,0,0.1,0.1,0.2,0.1c0.1,0,0.1,0,0.2,0
	c0,0,0.1,0,0.1,0c0,0,0.1,0,0.1,0H15c0,0,0.1,0,0.1,0c0,0,0.1,0,0.1,0c0.1,0,0.1,0,0.2,0c0.1,0,0.1,0,0.2-0.1c0.1,0,0.1-0.1,0.2-0.1
	c0,0,0.1-0.1,0.1-0.2c0-0.1,0.1-0.1,0.1-0.2c0-0.1,0-0.1,0-0.2c0,0,0-0.1,0-0.1c0,0,0-0.1,0-0.1V1.1c0,0,0-0.1,0-0.1
	c0,0,0-0.1,0-0.1c0-0.1,0-0.1,0-0.2c0-0.1,0-0.1-0.1-0.2c0-0.1-0.1-0.1-0.1-0.2c0,0-0.1-0.1-0.2-0.1c-0.1,0-0.1-0.1-0.2-0.1
	c-0.1,0-0.1,0-0.2,0c0,0-0.1,0-0.1,0C15.1,0.1,15.1,0.1,15,0.1L15,0.1z"/>
<path d="M15,0.2l0.1,0c0,0,0.1,0,0.1,0c0.1,0,0.1,0,0.2,0c0.1,0,0.1,0,0.2,0c0,0,0.1,0.1,0.1,0.1c0,0,0.1,0.1,0.1,0.1
	c0,0,0,0.1,0,0.2c0,0.1,0,0.1,0,0.2c0,0,0,0.1,0,0.1c0,0,0,0.1,0,0.1v3.9c0,0,0,0.1,0,0.1c0,0,0,0.1,0,0.1c0,0.1,0,0.1,0,0.2
	c0,0.1,0,0.1,0,0.2c0,0-0.1,0.1-0.1,0.1c0,0-0.1,0.1-0.1,0.1c0,0-0.1,0-0.2,0.1c-0.1,0-0.1,0-0.2,0c0,0-0.1,0-0.1,0c0,0-0.1,0-0.1,0
	H1c0,0,0,0,0,0c0,0-0.1,0-0.1,0c0,0-0.1,0-0.1,0c-0.1,0-0.1,0-0.2,0c-0.1,0-0.1,0-0.2-0.1c0,0-0.1-0.1-0.1-0.1c0,0-0.1-0.1-0.1-0.1
	c0,0,0-0.1,0-0.2c0-0.1,0-0.1,0-0.2c0,0,0-0.1,0-0.1V5v0V1.1v0V0.9c0,0,0-0.1,0-0.1c0-0.1,0-0.1,0-0.2c0-0.1,0-0.1,0-0.2
	c0,0,0.1-0.1,0.1-0.1c0,0,0.1-0.1,0.1-0.1c0,0,0.1,0,0.2,0c0.1,0,0.1,0,0.2,0c0,0,0.1,0,0.1,0l0.1,0L15,0.2"/>
<g>
	<path class="st1" d="M7.2,2C7.1,2,7,2,6.9,2C6.8,2,6.7,2,6.6,1.9C6.5,1.8,6.4,1.7,6.4,1.6c0-0.1,0-0.3,0.1-0.3
		c0.1-0.1,0.2-0.1,0.4-0.1c0.1,0,0.2,0,0.2,0l0,0.1c-0.1,0-0.1,0-0.2,0c-0.1,0-0.2,0-0.2,0.1C6.6,1.4,6.6,1.5,6.6,1.6s0,0.2,0.1,0.3
		c0.1,0.1,0.1,0.1,0.2,0.1c0.1,0,0.1,0,0.1,0V1.7H6.9V1.5h0.3L7.2,2L7.2,2z"/>
	<path class="st1" d="M8,1.7C8,1.7,8,1.7,8,1.7L7.5,1.7c0,0.1,0,0.1,0.1,0.1c0,0,0.1,0,0.1,0c0.1,0,0.1,0,0.2,0l0,0.1
		C7.9,2,7.8,2,7.7,2C7.6,2,7.5,2,7.5,2C7.4,1.9,7.4,1.8,7.4,1.7c0-0.1,0-0.2,0.1-0.2c0.1-0.1,0.1-0.1,0.2-0.1c0.1,0,0.2,0,0.2,0.1
		C7.9,1.5,8,1.6,8,1.7z M7.8,1.6c0,0,0-0.1,0-0.1c0,0-0.1-0.1-0.1-0.1c0,0-0.1,0-0.1,0.1c0,0,0,0.1,0,0.1L7.8,1.6L7.8,1.6z"/>
	<path class="st1" d="M8.5,1.5H8.3v0.3c0,0.1,0,0.1,0.1,0.1c0,0,0,0,0.1,0l0,0.1c0,0-0.1,0-0.1,0C8.3,2,8.3,2,8.2,2c0,0,0-0.1,0-0.2
		V1.5H8.1V1.4h0.1V1.3l0.1,0v0.2h0.2V1.5z"/>
	<path class="st1" d="M9.2,1.2C9.2,1.2,9.2,1.2,9.2,1.2C9.2,1.3,9.1,1.3,9.2,1.2C9.1,1.3,9.1,1.3,9,1.2c0,0,0,0,0-0.1c0,0,0,0,0-0.1
		C9.1,1.1,9.1,1.1,9.2,1.2C9.1,1.1,9.2,1.1,9.2,1.2C9.2,1.1,9.2,1.2,9.2,1.2z M9.2,2H9V1.4h0.1V2z"/>
	<path class="st1" d="M9.8,1.5H9.6v0.3c0,0.1,0,0.1,0.1,0.1c0,0,0,0,0.1,0l0,0.1c0,0-0.1,0-0.1,0C9.6,2,9.5,2,9.5,2c0,0,0-0.1,0-0.2
		V1.5H9.4V1.4h0.1V1.3l0.1,0v0.2h0.2L9.8,1.5L9.8,1.5z"/>
	<path class="st1" d="M10.9,1.7c0,0.1,0,0.2-0.1,0.2c-0.1,0.1-0.1,0.1-0.2,0.1c-0.1,0-0.2,0-0.2-0.1c-0.1-0.1-0.1-0.1-0.1-0.2
		c0-0.1,0-0.2,0.1-0.3c0.1-0.1,0.1-0.1,0.2-0.1c0.1,0,0.2,0,0.2,0.1C10.9,1.5,10.9,1.6,10.9,1.7z M10.8,1.7c0-0.1,0-0.1,0-0.2
		c0-0.1-0.1-0.1-0.1-0.1c-0.1,0-0.1,0-0.1,0.1c0,0,0,0.1,0,0.2c0,0.1,0,0.1,0,0.2c0,0.1,0.1,0.1,0.1,0.1c0.1,0,0.1,0,0.1-0.1
		C10.7,1.8,10.8,1.8,10.8,1.7z"/>
	<path class="st1" d="M11.7,2h-0.1V1.7c0-0.1,0-0.2-0.1-0.2c0,0-0.1,0-0.1,0c0,0,0,0.1,0,0.1V2h-0.1V1.6c0-0.1,0-0.1,0-0.2h0.1
		l0,0.1h0c0,0,0-0.1,0.1-0.1c0,0,0.1,0,0.1,0c0.1,0,0.1,0,0.2,0.1c0.1,0,0.1,0.1,0.1,0.2L11.7,2L11.7,2z"/>
</g>
<g>
	<polygon class="st1" points="8.4,4.7 8.4,3 8.4,3 7.7,4.7 7.5,4.7 6.8,3 6.8,3 6.8,4.7 6.5,4.7 6.5,2.5 6.9,2.5 7.6,4.2 7.6,4.2 
		8.3,2.5 8.7,2.5 8.7,4.7 8.4,4.7 	"/>
	<path class="st1" d="M10.4,4.7h-0.3V4.4h0C10,4.6,9.8,4.7,9.6,4.7C9.2,4.7,9,4.5,9,4.1v-1h0.3v1c0,0.2,0.1,0.4,0.3,0.4
		C9.9,4.4,10,4.2,10,4V3.1h0.3L10.4,4.7L10.4,4.7z"/>
	<path class="st1" d="M11.3,3c0.4,0,0.6,0.2,0.6,0.5h-0.3c0-0.2-0.1-0.3-0.3-0.3S11,3.4,11,3.5c0,0.1,0.1,0.2,0.2,0.2l0.3,0.1
		c0.3,0.1,0.4,0.2,0.4,0.4c0,0.3-0.3,0.5-0.6,0.5c-0.4,0-0.6-0.2-0.7-0.5h0.3c0,0.2,0.1,0.3,0.3,0.3c0.2,0,0.3-0.1,0.3-0.2
		c0-0.1-0.1-0.2-0.2-0.2L11.1,4c-0.3-0.1-0.4-0.2-0.4-0.5C10.7,3.2,10.9,3,11.3,3z"/>
	<path class="st1" d="M12.2,2.6c0-0.1,0.1-0.2,0.2-0.2c0.1,0,0.2,0.1,0.2,0.2c0,0.1-0.1,0.2-0.2,0.2C12.2,2.8,12.2,2.7,12.2,2.6
		L12.2,2.6z"/>
	<rect x="12.2" y="3.1" class="st1" width="0.3" height="1.6"/>
	<path class="st1" d="M13.9,3.6c0-0.2-0.2-0.3-0.4-0.3c-0.3,0-0.4,0.2-0.4,0.6c0,0.3,0.2,0.6,0.4,0.6c0.2,0,0.3-0.1,0.4-0.3h0.3
		c0,0.3-0.3,0.6-0.7,0.6c-0.5,0-0.7-0.3-0.7-0.8C12.8,3.3,13,3,13.5,3c0.4,0,0.6,0.3,0.7,0.6L13.9,3.6L13.9,3.6z"/>
</g>
<g>
	<path class="st1" d="M3.9,1.6C3.7,1.7,3.5,1.9,3.3,1.8c0-0.2,0.1-0.5,0.2-0.6C3.7,1.1,3.9,1,4.1,1C4.1,1.2,4,1.4,3.9,1.6L3.9,1.6z"
		/>
	<path class="st1" d="M4.1,1.9c0.1,0,0.5,0,0.7,0.4c0,0-0.4,0.2-0.4,0.7c0,0.6,0.5,0.8,0.5,0.8c0,0-0.1,0.3-0.2,0.5
		C4.4,4.5,4.3,4.7,4,4.7S3.7,4.5,3.4,4.5S3.1,4.7,2.8,4.7c-0.2,0-0.4-0.2-0.6-0.5C1.9,3.8,1.7,2.9,2,2.3c0.2-0.3,0.5-0.5,0.8-0.5
		C3,1.9,3.2,2,3.4,2S3.8,1.9,4.1,1.9L4.1,1.9z"/>
</g>
</svg>
