<?xml version="1.0" encoding="utf-8"?>
<!-- Generator: Adobe Illustrator 24.1.0, SVG Export Plug-In . SVG Version: 6.00 Build 0)  -->
<svg version="1.1" id="Ebene_1" xmlns="http://www.w3.org/2000/svg" xmlns:xlink="http://www.w3.org/1999/xlink" x="0px" y="0px"
	 viewBox="0 0 16 16" style="enable-background:new 0 0 16 16;" xml:space="preserve">
<style type="text/css">
	.st0{fill:#111111;}
</style>
<path class="st0" d="M8,0C3.6,0,0,3.6,0,8s3.6,8,8,8s8-3.6,8-8S12.4,0,8,0z M8.3,2.9c0.4-0.5,1-0.8,1.6-0.8c0.1,0.6-0.2,1.3-0.5,1.7
	c-0.4,0.4-1,0.8-1.6,0.8C7.6,3.9,8,3.3,8.3,2.9z M11.4,11.6c-0.4,0.7-0.9,1.3-1.6,1.3S8.8,12.4,8,12.4s-1.1,0.4-1.7,0.4
	c-0.7,0-1.3-0.7-1.7-1.4c-0.9-1.4-1.6-3.8-0.7-5.5c0.4-0.8,1.3-1.4,2.2-1.4c0.7,0,1.4,0.5,1.7,0.5c0.4,0,1.1-0.5,2-0.5
	c0.3,0,1.3,0.1,2,1.1c-0.1,0.1-1.1,0.7-1.1,2.1c0,1.6,1.4,2.2,1.4,2.2C12.1,10.1,11.9,10.8,11.4,11.6z"/>
</svg>
