<?xml version="1.0" encoding="utf-8"?>
<!-- Generator: Adobe Illustrator 24.1.0, SVG Export Plug-In . SVG Version: 6.00 Build 0)  -->
<svg version="1.1" id="Ebene_1" xmlns="http://www.w3.org/2000/svg" xmlns:xlink="http://www.w3.org/1999/xlink" x="0px" y="0px"
	 viewBox="0 0 16 40" style="enable-background:new 0 0 16 40;" xml:space="preserve">
<style type="text/css">
	.st0{fill:#A6A6A6;}
	.st1{fill:#FFFFFF;}
</style>
<path class="st0" d="M15,17.1H1c0,0-0.1,0-0.1,0c0,0-0.1,0-0.1,0c-0.1,0-0.1,0-0.2,0c-0.1,0-0.1,0-0.2,0.1c-0.1,0-0.1,0.1-0.2,0.1
	c0,0-0.1,0.1-0.1,0.2c0,0.1-0.1,0.1-0.1,0.2c0,0.1,0,0.1,0,0.2c0,0,0,0.1,0,0.1c0,0,0,0.1,0,0.1v3.9c0,0,0,0.1,0,0.1
	c0,0,0,0.1,0,0.1c0,0.1,0,0.1,0,0.2c0,0.1,0,0.1,0.1,0.2c0,0.1,0.1,0.1,0.1,0.2c0,0,0.1,0.1,0.2,0.1c0.1,0,0.1,0.1,0.2,0.1
	c0.1,0,0.1,0,0.2,0c0,0,0.1,0,0.1,0c0,0,0.1,0,0.1,0H15c0,0,0.1,0,0.1,0c0,0,0.1,0,0.1,0c0.1,0,0.1,0,0.2,0c0.1,0,0.1,0,0.2-0.1
	c0.1,0,0.1-0.1,0.2-0.1c0,0,0.1-0.1,0.1-0.2c0-0.1,0.1-0.1,0.1-0.2c0-0.1,0-0.1,0-0.2c0,0,0-0.1,0-0.1c0,0,0-0.1,0-0.1v-3.9
	c0,0,0-0.1,0-0.1c0,0,0-0.1,0-0.1c0-0.1,0-0.1,0-0.2c0-0.1,0-0.1-0.1-0.2c0-0.1-0.1-0.1-0.1-0.2c0,0-0.1-0.1-0.2-0.1
	c-0.1,0-0.1-0.1-0.2-0.1c-0.1,0-0.1,0-0.2,0c0,0-0.1,0-0.1,0C15.1,17.1,15.1,17.1,15,17.1L15,17.1z"/>
<path d="M15,17.2l0.1,0c0,0,0.1,0,0.1,0c0.1,0,0.1,0,0.2,0c0.1,0,0.1,0,0.2,0c0,0,0.1,0.1,0.1,0.1c0,0,0.1,0.1,0.1,0.1
	c0,0,0,0.1,0,0.2c0,0.1,0,0.1,0,0.2c0,0,0,0.1,0,0.1c0,0,0,0.1,0,0.1v3.9c0,0,0,0.1,0,0.1c0,0,0,0.1,0,0.1c0,0.1,0,0.1,0,0.2
	c0,0.1,0,0.1,0,0.2c0,0-0.1,0.1-0.1,0.1c0,0-0.1,0.1-0.1,0.1c0,0-0.1,0-0.2,0.1c-0.1,0-0.1,0-0.2,0c0,0-0.1,0-0.1,0c0,0-0.1,0-0.1,0
	H1c0,0,0,0,0,0c0,0-0.1,0-0.1,0c0,0-0.1,0-0.1,0c-0.1,0-0.1,0-0.2,0c-0.1,0-0.1,0-0.2-0.1c0,0-0.1-0.1-0.1-0.1c0,0-0.1-0.1-0.1-0.1
	c0,0,0-0.1,0-0.2c0-0.1,0-0.1,0-0.2c0,0,0-0.1,0-0.1V22v0v-3.9v0v-0.1c0,0,0-0.1,0-0.1c0-0.1,0-0.1,0-0.2c0-0.1,0-0.1,0-0.2
	c0,0,0.1-0.1,0.1-0.1c0,0,0.1-0.1,0.1-0.1c0,0,0.1,0,0.2,0c0.1,0,0.1,0,0.2,0c0,0,0.1,0,0.1,0l0.1,0L15,17.2"/>
<g>
	<path class="st1" d="M6.9,19C7,19,7.1,19,7.2,19h0v-0.5H6.9v0.1h0.2v0.2c0,0-0.1,0-0.1,0c-0.1,0-0.2,0-0.2-0.1
		c-0.1-0.1-0.1-0.1-0.1-0.3c0-0.1,0-0.2,0.1-0.3c0.1-0.1,0.1-0.1,0.2-0.1c0.1,0,0.1,0,0.2,0l0-0.1c-0.1,0-0.1,0-0.2,0
		c-0.1,0-0.3,0-0.4,0.1c-0.1,0.1-0.1,0.2-0.1,0.3c0,0.1,0,0.3,0.1,0.3C6.7,19,6.8,19,6.9,19z"/>
	<path class="st1" d="M7.7,19c0.1,0,0.2,0,0.2,0l0-0.1c-0.1,0-0.1,0-0.2,0c-0.1,0-0.1,0-0.1,0c0,0-0.1-0.1-0.1-0.1H8c0,0,0,0,0-0.1
		c0-0.1,0-0.2-0.1-0.2c0-0.1-0.1-0.1-0.2-0.1c-0.1,0-0.2,0-0.2,0.1c-0.1,0.1-0.1,0.1-0.1,0.2c0,0.1,0,0.2,0.1,0.2
		C7.5,19,7.6,19,7.7,19z M7.6,18.5c0,0,0.1-0.1,0.1-0.1c0.1,0,0.1,0,0.1,0.1c0,0,0,0.1,0,0.1v0H7.5C7.5,18.6,7.5,18.6,7.6,18.5z"/>
	<path class="st1" d="M8.2,18.8c0,0.1,0,0.1,0,0.2c0,0,0.1,0.1,0.1,0.1c0,0,0.1,0,0.1,0l0-0.1c0,0,0,0-0.1,0c-0.1,0-0.1,0-0.1-0.1
		v-0.3h0.2v-0.1H8.3v-0.2l-0.1,0v0.1H8.1v0.1h0.1V18.8z"/>
	<rect x="9" y="18.4" class="st1" width="0.1" height="0.7"/>
	<path class="st1" d="M9.1,18.3C9.1,18.3,9.2,18.3,9.1,18.3C9.2,18.2,9.2,18.2,9.1,18.3c0.1-0.1,0.1-0.1,0.1-0.2c0,0,0,0-0.1,0
		c0,0,0,0-0.1,0C9,18.1,9,18.2,9.1,18.3C9,18.2,9,18.2,9.1,18.3C9.1,18.3,9.1,18.3,9.1,18.3z"/>
	<path class="st1" d="M9.5,18.8c0,0.1,0,0.1,0,0.2c0,0,0.1,0.1,0.1,0.1c0,0,0.1,0,0.1,0l0-0.1c0,0,0,0-0.1,0c-0.1,0-0.1,0-0.1-0.1
		v-0.3h0.2v-0.1H9.6v-0.2l-0.1,0v0.1H9.4v0.1h0.1V18.8z"/>
	<path class="st1" d="M10.9,18.7c0-0.1,0-0.2-0.1-0.2c-0.1-0.1-0.1-0.1-0.2-0.1c-0.1,0-0.2,0-0.2,0.1c-0.1,0.1-0.1,0.1-0.1,0.3
		c0,0.1,0,0.2,0.1,0.2c0.1,0.1,0.1,0.1,0.2,0.1c0.1,0,0.2,0,0.2-0.1C10.9,18.9,10.9,18.8,10.9,18.7z M10.7,18.9
		c0,0.1-0.1,0.1-0.1,0.1c-0.1,0-0.1,0-0.1-0.1c0,0,0-0.1,0-0.2c0-0.1,0-0.1,0-0.2c0-0.1,0.1-0.1,0.1-0.1c0.1,0,0.1,0,0.1,0.1
		c0,0,0,0.1,0,0.2C10.8,18.8,10.7,18.8,10.7,18.9z"/>
	<path class="st1" d="M11.1,19h0.1v-0.4c0,0,0-0.1,0-0.1c0,0,0.1,0,0.1,0c0.1,0,0.1,0.1,0.1,0.2V19h0.1v-0.4c0-0.1,0-0.2-0.1-0.2
		c0,0-0.1-0.1-0.2-0.1c0,0-0.1,0-0.1,0c0,0-0.1,0-0.1,0.1h0l0-0.1h-0.1c0,0.1,0,0.1,0,0.2V19z"/>
	<polygon class="st1" points="7.6,21.2 7.6,21.2 6.9,19.5 6.5,19.5 6.5,21.7 6.8,21.7 6.8,20 6.8,20 7.5,21.7 7.7,21.7 8.4,20 
		8.4,20 8.4,21.7 8.7,21.7 8.7,19.5 8.3,19.5 	"/>
	<path class="st1" d="M10,20.1V21c0,0.3-0.1,0.4-0.4,0.4c-0.2,0-0.3-0.1-0.3-0.4v-1H9v1c0,0.4,0.2,0.6,0.6,0.6
		c0.2,0,0.4-0.1,0.5-0.3h0v0.3h0.3l0-1.6H10z"/>
	<path class="st1" d="M11.5,20.8l-0.3-0.1c-0.2,0-0.2-0.1-0.2-0.2c0-0.1,0.1-0.2,0.3-0.2c0.2,0,0.3,0.1,0.3,0.3h0.3
		c0-0.3-0.2-0.5-0.6-0.5c-0.4,0-0.6,0.2-0.6,0.5c0,0.2,0.1,0.4,0.4,0.5l0.3,0.1c0.2,0,0.2,0.1,0.2,0.2c0,0.1-0.1,0.2-0.3,0.2
		c-0.2,0-0.3-0.1-0.3-0.3h-0.3c0,0.3,0.3,0.5,0.7,0.5c0.4,0,0.6-0.2,0.6-0.5C11.9,21,11.8,20.8,11.5,20.8z"/>
	<path class="st1" d="M12.3,19.4c-0.1,0-0.2,0.1-0.2,0.2c0,0.1,0.1,0.2,0.2,0.2c0.1,0,0.2-0.1,0.2-0.2
		C12.5,19.5,12.5,19.4,12.3,19.4z"/>
	<rect x="12.2" y="20.1" class="st1" width="0.3" height="1.6"/>
	<path class="st1" d="M13.5,21.4c-0.3,0-0.4-0.2-0.4-0.6c0-0.3,0.2-0.6,0.4-0.6c0.2,0,0.3,0.1,0.4,0.3l0.3,0c0-0.3-0.3-0.6-0.7-0.6
		c-0.5,0-0.7,0.3-0.7,0.8c0,0.5,0.3,0.8,0.7,0.8c0.4,0,0.6-0.2,0.7-0.6h-0.3C13.8,21.3,13.7,21.4,13.5,21.4z"/>
	<path class="st1" d="M4.1,18c-0.2,0-0.4,0.1-0.5,0.3c-0.1,0.1-0.2,0.4-0.2,0.6c0.2,0,0.4-0.1,0.5-0.3C4,18.4,4.1,18.2,4.1,18z"/>
	<path class="st1" d="M4.3,20c0-0.5,0.4-0.7,0.4-0.7c-0.2-0.3-0.6-0.4-0.7-0.4c-0.3,0-0.6,0.2-0.7,0.2c-0.1,0-0.4-0.2-0.6-0.2
		c-0.3,0-0.6,0.2-0.8,0.5c-0.3,0.6-0.1,1.4,0.2,1.9c0.2,0.2,0.3,0.5,0.6,0.5c0.2,0,0.3-0.2,0.6-0.2c0.3,0,0.4,0.2,0.6,0.2
		c0.2,0,0.4-0.2,0.6-0.5c0.2-0.3,0.2-0.5,0.2-0.5C4.8,20.7,4.3,20.5,4.3,20z"/>
</g>
</svg>
