<svg version="1.1" id="Ebene_1" xmlns="http://www.w3.org/2000/svg" xmlns:xlink="http://www.w3.org/1999/xlink" x="0px" y="0px" height="100%" width="110px"
	 viewBox="0 0 110 40" style="enable-background:new 0 0 110 40;" xml:space="preserve">
<style type="text/css">
	.st0{fill:#A6A6A6;}
	.st1{fill:#FFFFFF;}
</style>
<g>
	<g>
		<path class="st0" d="M100.5,0H9.5C9.2,0,8.8,0,8.4,0C8.1,0,7.8,0,7.5,0c-0.7,0-1.3,0.1-2,0.2C4.8,0.3,4.2,0.5,3.6,0.8
			C3,1.1,2.5,1.5,2,2C1.5,2.5,1.1,3,0.8,3.6C0.5,4.2,0.3,4.9,0.2,5.5C0.1,6.2,0,6.9,0,7.5c0,0.3,0,0.6,0,0.9c0,0.4,0,0.7,0,1.1v20.9
			c0,0.4,0,0.7,0,1.1c0,0.3,0,0.6,0,0.9c0,0.7,0.1,1.3,0.2,2c0.1,0.7,0.3,1.3,0.6,1.9C1.1,37,1.5,37.5,2,38c0.5,0.5,1,0.9,1.6,1.2
			c0.6,0.3,1.2,0.5,1.9,0.6c0.7,0.1,1.3,0.2,2,0.2c0.3,0,0.6,0,0.9,0c0.4,0,0.7,0,1.1,0h90.9c0.4,0,0.7,0,1.1,0c0.3,0,0.6,0,0.9,0
			c0.7,0,1.3-0.1,2-0.2c0.7-0.1,1.3-0.3,1.9-0.6c0.6-0.3,1.1-0.7,1.6-1.2c0.5-0.5,0.9-1,1.2-1.6c0.3-0.6,0.5-1.2,0.6-1.9
			c0.1-0.7,0.2-1.3,0.2-2c0-0.3,0-0.6,0-0.9c0-0.4,0-0.7,0-1.1V9.5c0-0.4,0-0.7,0-1.1c0-0.3,0-0.6,0-0.9c0-0.7-0.1-1.3-0.2-2
			c-0.1-0.7-0.3-1.3-0.6-1.9C108.9,3,108.5,2.5,108,2c-0.5-0.5-1-0.9-1.6-1.2c-0.6-0.3-1.2-0.5-1.9-0.6c-0.7-0.1-1.3-0.2-2-0.2
			c-0.3,0-0.6,0-0.9,0C101.2,0,100.8,0,100.5,0L100.5,0z"/>
		<path d="M8.4,39.1c-0.3,0-0.6,0-0.9,0c-0.6,0-1.2,0-1.9-0.2c-0.6-0.1-1.2-0.3-1.7-0.5c-0.5-0.3-1-0.6-1.4-1
			c-0.4-0.4-0.8-0.9-1-1.4c-0.3-0.5-0.4-1-0.5-1.7c-0.1-0.7-0.2-1.4-0.2-1.9c0-0.2,0-0.9,0-0.9V8.4c0,0,0-0.7,0-0.9
			c0-0.5,0-1.2,0.2-1.9C1.2,5.1,1.3,4.5,1.6,4c0.3-0.5,0.6-1,1-1.4C3,2.2,3.5,1.9,4,1.6c0.5-0.3,1.1-0.4,1.7-0.5
			C6.3,0.9,7,0.9,7.5,0.9l0.9,0h93.1l0.9,0c0.5,0,1.2,0,1.9,0.2c0.6,0.1,1.1,0.3,1.7,0.5c0.5,0.3,1,0.6,1.4,1c0.4,0.4,0.8,0.9,1,1.4
			c0.3,0.5,0.4,1.1,0.5,1.6c0.1,0.6,0.2,1.3,0.2,1.9c0,0.3,0,0.6,0,0.9c0,0.4,0,0.7,0,1.1v20.9c0,0.4,0,0.7,0,1.1c0,0.3,0,0.6,0,0.9
			c0,0.6-0.1,1.2-0.2,1.9c-0.1,0.6-0.3,1.2-0.5,1.7c-0.3,0.5-0.6,1-1,1.4c-0.4,0.4-0.9,0.8-1.4,1c-0.5,0.3-1,0.4-1.7,0.5
			c-0.6,0.1-1.3,0.1-1.9,0.2c-0.3,0-0.6,0-0.9,0l-1.1,0L8.4,39.1z"/>
	</g>
</g>
<g>
	<path class="st1" d="M36.5,9H33V2.6h0.8v5.7h2.7V9z"/>
	<path class="st1" d="M38.8,3c0,0.2-0.1,0.3-0.2,0.4c-0.1,0.1-0.2,0.1-0.4,0.1c-0.2,0-0.3-0.1-0.4-0.2c-0.1-0.1-0.1-0.2-0.1-0.4
		c0-0.2,0.1-0.3,0.2-0.4c0.1-0.1,0.2-0.2,0.4-0.2c0.2,0,0.3,0,0.4,0.1C38.8,2.7,38.8,2.9,38.8,3z M38.7,9h-0.8V4.4h0.8V9z"/>
	<path class="st1" d="M43.2,7.7c0,0.4-0.2,0.7-0.5,1C42.4,9,42,9.1,41.5,9.1c-0.5,0-0.9-0.1-1.3-0.3l0.2-0.6
		c0.3,0.2,0.7,0.3,1.1,0.3c0.6,0,0.9-0.2,0.9-0.7c0-0.2-0.1-0.4-0.2-0.5c-0.1-0.1-0.3-0.2-0.6-0.4c-0.8-0.3-1.2-0.7-1.2-1.3
		c0-0.4,0.1-0.7,0.4-1c0.3-0.3,0.7-0.4,1.1-0.4c0.4,0,0.8,0.1,1.1,0.3l-0.2,0.6c-0.3-0.2-0.6-0.3-0.9-0.3c-0.2,0-0.4,0.1-0.6,0.2
		c-0.1,0.1-0.2,0.3-0.2,0.5c0,0.2,0.1,0.3,0.2,0.4c0.1,0.1,0.3,0.2,0.6,0.3C42.8,6.6,43.2,7.1,43.2,7.7z"/>
	<path class="st1" d="M46.9,5h-1.2v2.5c0,0.6,0.2,0.9,0.6,0.9c0.2,0,0.3,0,0.5-0.1l0,0.6c-0.2,0.1-0.4,0.1-0.7,0.1
		c-0.4,0-0.7-0.1-0.9-0.3c-0.2-0.2-0.3-0.6-0.3-1.2V5h-0.7V4.4h0.7V3.6l0.8-0.2v1.1h1.2V5z"/>
	<path class="st1" d="M51.9,6.4c0,0.2,0,0.3,0,0.4h-3.2c0,0.5,0.2,0.9,0.5,1.2c0.3,0.2,0.6,0.4,1.1,0.4c0.5,0,0.9-0.1,1.2-0.2
		l0.1,0.6c-0.4,0.2-0.9,0.3-1.5,0.3c-0.7,0-1.2-0.2-1.6-0.6C48.2,8,48,7.5,48,6.8C48,6,48.2,5.5,48.5,5c0.4-0.5,0.9-0.7,1.5-0.7
		c0.7,0,1.1,0.3,1.5,0.8C51.8,5.4,51.9,5.9,51.9,6.4z M51.1,6.2c0-0.3-0.1-0.6-0.2-0.9C50.7,5,50.4,4.9,50,4.9
		c-0.4,0-0.7,0.2-0.9,0.5c-0.2,0.2-0.3,0.5-0.3,0.9H51.1z"/>
	<path class="st1" d="M57.3,9h-0.8V6.3c0-0.9-0.3-1.3-1-1.3c-0.3,0-0.6,0.1-0.8,0.4c-0.2,0.2-0.3,0.5-0.3,0.9V9h-0.8V5.6
		c0-0.4,0-0.8,0-1.2h0.7l0,0.7h0c0.1-0.2,0.3-0.4,0.6-0.6c0.3-0.2,0.6-0.3,0.9-0.3c0.4,0,0.7,0.1,1,0.4c0.4,0.3,0.6,0.9,0.6,1.5V9z"
		/>
	<path class="st1" d="M65.9,6.7c0,0.7-0.2,1.3-0.6,1.7c-0.4,0.5-1,0.7-1.7,0.7c-0.7,0-1.2-0.2-1.6-0.7c-0.4-0.4-0.6-1-0.6-1.7
		c0-0.7,0.2-1.3,0.6-1.7c0.4-0.5,1-0.7,1.7-0.7c0.7,0,1.2,0.2,1.6,0.7C65.7,5.4,65.9,6,65.9,6.7z M65.1,6.7c0-0.5-0.1-0.9-0.3-1.2
		c-0.2-0.4-0.6-0.6-1-0.6c-0.4,0-0.8,0.2-1,0.6c-0.2,0.3-0.3,0.7-0.3,1.2c0,0.5,0.1,0.9,0.3,1.2c0.2,0.4,0.6,0.6,1,0.6
		c0.4,0,0.8-0.2,1-0.6C65,7.5,65.1,7.1,65.1,6.7z"/>
	<path class="st1" d="M71.3,9h-0.8V6.3c0-0.9-0.3-1.3-1-1.3c-0.3,0-0.6,0.1-0.8,0.4c-0.2,0.2-0.3,0.5-0.3,0.9V9h-0.8V5.6
		c0-0.4,0-0.8,0-1.2h0.7l0,0.7h0c0.1-0.2,0.3-0.4,0.6-0.6c0.3-0.2,0.6-0.3,0.9-0.3c0.4,0,0.7,0.1,1,0.4c0.4,0.3,0.6,0.9,0.6,1.5V9z"
		/>
</g>
<g>
	<polygon class="st1" points="41.5,25.4 41.4,25.4 35.9,11.6 32.9,11.6 32.9,28.9 35.3,28.9 35.3,16.1 35.3,16.1 40.5,28.9
		42.5,28.9 47.6,16.1 47.7,16.1 47.7,28.9 50.2,28.9 50.2,11.6 47,11.6 	"/>
	<path class="st1" d="M60.9,16.2v7.3c0,2-1,3.3-2.9,3.3c-1.7,0-2.7-1-2.7-2.9v-7.7h-2.6v8.2c0,2.9,1.6,4.7,4.4,4.7
		c1.9,0,3.2-0.9,3.9-2.4h0.1v2.2h2.5l-0.1-12.7H60.9z"/>
	<path class="st1" d="M72.1,21.8l-2-0.5c-1.3-0.3-1.9-0.9-1.9-1.6c0-1,0.9-1.7,2.4-1.7s2.3,0.8,2.5,2h2.4c-0.1-2.4-1.9-4-4.8-4
		s-4.8,1.5-4.8,3.7c0,1.9,1.1,3,3.5,3.6l2,0.5c1.3,0.3,1.8,0.8,1.8,1.6c0,1-0.9,1.7-2.5,1.7s-2.5-0.7-2.7-2h-2.6
		c0.2,2.5,2.1,4,5.2,4c2.9,0,5-1.6,5-3.9C75.6,23.4,74.6,22.4,72.1,21.8z"/>
	<circle class="st1" cx="79" cy="12.9" r="1.5"/>
	<rect x="77.7" y="16.2" class="st1" width="2.6" height="12.7"/>
	<path class="st1" d="M88.1,26.8c-2,0-3.3-1.6-3.3-4.4c0-2.7,1.3-4.4,3.3-4.4c1.7,0,2.7,1.1,2.9,2.5l2.5-0.1
		c-0.3-2.5-2.2-4.6-5.4-4.6c-3.6,0-5.9,2.6-5.9,6.5c0,4.1,2.3,6.5,5.9,6.5c3,0,5.1-1.9,5.4-4.6h-2.5C90.7,26,89.7,26.8,88.1,26.8z"
		/>
	<path class="st1" d="M23.3,12.5c0.7-0.9,1.1-2.1,1-3.2c-1,0-2.2,0.6-2.9,1.5c-0.6,0.7-1.2,1.9-1,3.1C21.5,14,22.6,13.3,23.3,12.5z"
		/>
	<path class="st1" d="M25.8,19.9c0-2.5,2-3.7,2.1-3.8c-1.2-1.8-3-2-3.6-2c-1.6-0.1-3,0.9-3.7,0.9s-1.9-0.9-3.2-0.9
		c-1.6,0-3.2,1-4,2.5c-1.8,3-0.5,7.5,1.2,10c0.8,1.2,1.8,2.5,3.1,2.5c1.2,0,1.7-0.8,3.2-0.8c1.5,0,1.9,0.8,3.2,0.8s2.2-1.2,3-2.4
		c0.9-1.4,1.3-2.7,1.3-2.8C28.4,23.9,25.8,22.9,25.8,19.9z"/>
</g>
</svg>
