<svg viewBox="0 0 16 16">
<style type="text/css">
	.st0{fill:#111111;}
</style>
<g>
	<path class="st0" d="M10.1,2.6C10.6,1.9,11,0.9,10.9,0c-0.8,0-1.8,0.5-2.3,1.2C8,1.8,7.6,2.7,7.7,3.7C8.6,3.8,9.5,3.2,10.1,2.6z"/>
	<path class="st0" d="M12.1,8.6c0-2,1.6-3,1.7-3.1c-1-1.5-2.4-1.6-2.9-1.6c-1.3-0.1-2.4,0.7-3,0.7c-0.6,0-1.5-0.7-2.6-0.7
		c-1.3,0-2.6,0.8-3.2,2C0.6,8.3,1.7,12,3,14c0.6,1,1.5,2,2.5,2c1,0,1.4-0.6,2.6-0.6S9.7,16,10.7,16c1.1,0,1.8-1,2.4-1.9
		c0.7-1.1,1.1-2.2,1.1-2.3C14.2,11.8,12.1,11,12.1,8.6z"/>
</g>
</svg>
