<svg version="1.1" id="Ebene_1" xmlns="http://www.w3.org/2000/svg" xmlns:xlink="http://www.w3.org/1999/xlink" x="0px" y="0px"
	 viewBox="0 0 44 16" style="enable-background:new 0 0 44 16;" xml:space="preserve">
<style type="text/css">
	.st0{fill:#A6A6A6;}
	.st1{fill:#FFFFFF;}
</style>
<path class="st0" d="M41.3,0H2.6C2.5,0,2.4,0,2.3,0C2.3,0,2.2,0,2.1,0C1.9,0,1.7,0,1.5,0.1C1.3,0.1,1.2,0.1,1,0.2
	C0.8,0.3,0.7,0.4,0.6,0.6C0.4,0.7,0.3,0.8,0.2,1C0.1,1.2,0.1,1.3,0.1,1.5C0,1.7,0,1.9,0,2.1c0,0.1,0,0.2,0,0.3c0,0.1,0,0.2,0,0.3
	v10.7c0,0.1,0,0.2,0,0.3c0,0.1,0,0.2,0,0.3c0,0.2,0,0.4,0.1,0.6c0,0.2,0.1,0.4,0.2,0.5c0.1,0.2,0.2,0.3,0.3,0.4
	c0.1,0.1,0.3,0.2,0.5,0.3c0.2,0.1,0.3,0.1,0.5,0.2c0.2,0,0.4,0,0.6,0c0.1,0,0.2,0,0.3,0c0.1,0,0.2,0,0.3,0h38.7c0.1,0,0.2,0,0.3,0
	c0.1,0,0.2,0,0.3,0c0.2,0,0.4,0,0.6,0c0.2,0,0.4-0.1,0.5-0.2c0.2-0.1,0.3-0.2,0.5-0.3c0.1-0.1,0.2-0.3,0.3-0.4
	c0.1-0.2,0.1-0.3,0.2-0.5c0-0.2,0-0.4,0-0.6c0-0.1,0-0.2,0-0.3c0-0.1,0-0.2,0-0.3V2.6c0-0.1,0-0.2,0-0.3c0-0.1,0-0.2,0-0.3
	c0-0.2,0-0.4,0-0.6c0-0.2-0.1-0.4-0.2-0.5c-0.1-0.2-0.2-0.3-0.3-0.5c-0.1-0.1-0.3-0.2-0.5-0.3c-0.2-0.1-0.3-0.1-0.5-0.2
	c-0.2,0-0.4,0-0.6,0c-0.1,0-0.2,0-0.3,0C41.6,0,41.4,0,41.3,0L41.3,0z"/>
<path d="M41.3,0.4l0.3,0c0.1,0,0.2,0,0.2,0c0.2,0,0.3,0,0.5,0c0.2,0,0.3,0.1,0.4,0.1c0.1,0.1,0.2,0.2,0.3,0.3
	c0.1,0.1,0.2,0.2,0.3,0.4c0.1,0.1,0.1,0.3,0.1,0.4c0,0.2,0,0.3,0,0.5c0,0.1,0,0.2,0,0.2c0,0.1,0,0.2,0,0.3v10.7c0,0.1,0,0.2,0,0.3
	c0,0.1,0,0.2,0,0.2c0,0.2,0,0.3,0,0.5c0,0.2-0.1,0.3-0.1,0.4c-0.1,0.1-0.2,0.2-0.3,0.3c-0.1,0.1-0.2,0.2-0.4,0.3
	c-0.1,0.1-0.3,0.1-0.4,0.1c-0.2,0-0.4,0-0.5,0c-0.1,0-0.2,0-0.2,0c-0.1,0-0.2,0-0.3,0H2.6c0,0,0,0,0,0c-0.1,0-0.2,0-0.3,0
	c-0.1,0-0.2,0-0.2,0c-0.1,0-0.3,0-0.5,0c-0.2,0-0.3-0.1-0.4-0.1c-0.1-0.1-0.2-0.1-0.4-0.3c-0.1-0.1-0.2-0.2-0.3-0.3
	c-0.1-0.1-0.1-0.3-0.1-0.4c0-0.2,0-0.3,0-0.5c0-0.1,0-0.2,0-0.2v-0.2v-0.1V2.6V2.6V2.4c0-0.1,0-0.2,0-0.2c0-0.1,0-0.3,0-0.5
	c0-0.2,0.1-0.3,0.1-0.4c0.1-0.1,0.2-0.2,0.3-0.3c0.1-0.1,0.2-0.2,0.3-0.3c0.1-0.1,0.3-0.1,0.4-0.1c0.2,0,0.3,0,0.5,0
	c0.1,0,0.2,0,0.2,0l0.3,0L41.3,0.4"/>
<g>
	<path class="st1" d="M19,5.4c0.3,0,0.5,0,0.8-0.1h0V4h-0.8v0.3h0.5V5C19.3,5,19.2,5,19,5c-0.3,0-0.5-0.1-0.6-0.2
		c-0.2-0.2-0.2-0.4-0.2-0.7c0-0.3,0.1-0.5,0.3-0.7c0.2-0.2,0.4-0.2,0.7-0.2c0.2,0,0.4,0,0.5,0.1l0.1-0.3c-0.2-0.1-0.4-0.1-0.6-0.1
		c-0.4,0-0.7,0.1-1,0.4c-0.3,0.2-0.4,0.6-0.4,0.9c0,0.4,0.1,0.7,0.4,0.9C18.3,5.3,18.6,5.4,19,5.4z"/>
	<path class="st1" d="M21.2,5.4c0.2,0,0.4,0,0.6-0.1L21.7,5c-0.1,0.1-0.3,0.1-0.5,0.1c-0.2,0-0.3,0-0.4-0.1
		c-0.1-0.1-0.2-0.2-0.2-0.4h1.2c0,0,0-0.1,0-0.2c0-0.2-0.1-0.4-0.2-0.6c-0.1-0.2-0.3-0.3-0.6-0.3c-0.3,0-0.5,0.1-0.6,0.3
		c-0.1,0.2-0.2,0.4-0.2,0.7c0,0.3,0.1,0.5,0.2,0.7C20.7,5.3,20.9,5.4,21.2,5.4z M20.8,3.9c0.1-0.1,0.2-0.2,0.3-0.2
		c0.1,0,0.3,0.1,0.3,0.2c0.1,0.1,0.1,0.2,0.1,0.3v0h-0.8C20.7,4.1,20.7,4,20.8,3.9z"/>
	<path class="st1" d="M22.5,4.8c0,0.2,0,0.4,0.1,0.5c0.1,0.1,0.2,0.1,0.4,0.1c0.1,0,0.2,0,0.3,0l0-0.3c0,0-0.1,0-0.2,0
		c-0.2,0-0.2-0.1-0.2-0.3V3.8h0.4V3.5h-0.4V3.1l-0.4,0.1v0.3h-0.3v0.3h0.3V4.8z"/>
	<rect x="24.9" y="3.5" class="st1" width="0.4" height="1.8"/>
	<path class="st1" d="M25.1,3.2c0.1,0,0.1,0,0.2-0.1c0,0,0.1-0.1,0.1-0.2c0-0.1,0-0.1-0.1-0.2c0,0-0.1-0.1-0.2-0.1
		c-0.1,0-0.1,0-0.2,0.1c0,0-0.1,0.1-0.1,0.2c0,0.1,0,0.1,0.1,0.2S25,3.2,25.1,3.2z"/>
	<path class="st1" d="M26,4.8c0,0.2,0,0.4,0.1,0.5c0.1,0.1,0.2,0.1,0.4,0.1c0.1,0,0.2,0,0.3,0l0-0.3c0,0-0.1,0-0.2,0
		c-0.2,0-0.2-0.1-0.2-0.3V3.8h0.4V3.5h-0.4V3.1L26,3.2v0.3h-0.3v0.3H26V4.8z"/>
	<path class="st1" d="M30,4.4c0-0.3-0.1-0.5-0.2-0.7c-0.2-0.2-0.4-0.3-0.6-0.3c-0.3,0-0.5,0.1-0.7,0.3c-0.2,0.2-0.2,0.4-0.2,0.7
		c0,0.3,0.1,0.5,0.2,0.7c0.2,0.2,0.4,0.3,0.6,0.3c0.3,0,0.5-0.1,0.7-0.3C29.9,4.9,30,4.7,30,4.4z M29.5,4.9
		c-0.1,0.1-0.2,0.2-0.4,0.2c-0.2,0-0.3-0.1-0.4-0.2c-0.1-0.1-0.1-0.3-0.1-0.4c0-0.2,0-0.3,0.1-0.4c0.1-0.1,0.2-0.2,0.4-0.2
		c0.2,0,0.3,0.1,0.4,0.2c0.1,0.1,0.1,0.3,0.1,0.4C29.6,4.6,29.6,4.8,29.5,4.9z"/>
	<path class="st1" d="M30.5,5.3h0.4V4.3c0-0.1,0-0.2,0.1-0.3c0.1-0.1,0.2-0.1,0.3-0.1c0.2,0,0.4,0.2,0.4,0.5v1h0.4V4.3
		c0-0.3-0.1-0.5-0.2-0.6c-0.1-0.1-0.3-0.2-0.4-0.2c-0.1,0-0.3,0-0.4,0.1C31,3.7,31,3.7,30.9,3.8h0l0-0.3h-0.4c0,0.2,0,0.4,0,0.5V5.3
		z"/>
	<polygon class="st1" points="20.9,11.4 20.8,11.4 18.9,6.5 17.9,6.5 17.9,12.6 18.7,12.6 18.7,8.1 18.7,8.1 20.5,12.6 21.2,12.6
		23,8.1 23,8.1 23,12.6 23.9,12.6 23.9,6.5 22.8,6.5 	"/>
	<path class="st1" d="M27.6,8.2v2.5c0,0.7-0.4,1.2-1,1.2c-0.6,0-0.9-0.4-0.9-1V8.2h-0.9V11c0,1,0.6,1.7,1.5,1.7
		c0.7,0,1.1-0.3,1.4-0.8h0v0.8h0.9l0-4.4H27.6z"/>
	<path class="st1" d="M31.5,10.1L30.8,10c-0.5-0.1-0.7-0.3-0.7-0.6c0-0.4,0.3-0.6,0.8-0.6c0.5,0,0.8,0.3,0.9,0.7h0.8
		c0-0.8-0.7-1.4-1.7-1.4c-1,0-1.7,0.5-1.7,1.3c0,0.7,0.4,1.1,1.2,1.3l0.7,0.2c0.5,0.1,0.6,0.3,0.6,0.6c0,0.4-0.3,0.6-0.9,0.6
		c-0.5,0-0.9-0.2-0.9-0.7h-0.9c0.1,0.9,0.7,1.4,1.8,1.4c1,0,1.8-0.6,1.8-1.4C32.8,10.7,32.4,10.3,31.5,10.1z"/>
	<path class="st1" d="M33.9,6.5c-0.3,0-0.5,0.2-0.5,0.5c0,0.3,0.2,0.5,0.5,0.5c0.3,0,0.5-0.2,0.5-0.5C34.5,6.7,34.2,6.5,33.9,6.5z"
		/>
	<rect x="33.5" y="8.2" class="st1" width="0.9" height="4.4"/>
	<path class="st1" d="M37.1,11.9c-0.7,0-1.2-0.6-1.2-1.5c0-0.9,0.5-1.5,1.2-1.5c0.6,0,0.9,0.4,1,0.9l0.9,0c-0.1-0.9-0.8-1.6-1.9-1.6
		c-1.3,0-2.1,0.9-2.1,2.3c0,1.4,0.8,2.3,2.1,2.3c1.1,0,1.8-0.7,1.9-1.6h-0.9C38,11.6,37.7,11.9,37.1,11.9z"/>
	<path class="st1" d="M11.2,2.4c-0.5,0-1.1,0.3-1.5,0.8c-0.3,0.4-0.6,1-0.5,1.6c0.6,0.1,1.1-0.3,1.5-0.7C11,3.6,11.2,3,11.2,2.4z"/>
	<path class="st1" d="M12,7.9c0-1.3,1-1.9,1.1-2c-0.6-0.9-1.5-1-1.9-1c-0.8-0.1-1.5,0.5-1.9,0.5c-0.4,0-1-0.5-1.7-0.5
		C6.8,4.9,6,5.4,5.6,6.2c-0.9,1.5-0.3,3.9,0.6,5.2c0.4,0.6,0.9,1.3,1.6,1.3c0.6,0,0.9-0.4,1.7-0.4c0.8,0,1,0.4,1.7,0.4
		c0.7,0,1.1-0.6,1.5-1.2c0.5-0.7,0.7-1.4,0.7-1.4C13.3,10,12,9.4,12,7.9z"/>
</g>
</svg>
