<svg version="1.1" xmlns="http://www.w3.org/2000/svg" xmlns:xlink="http://www.w3.org/1999/xlink" x="0px" y="0px" width="120px" height="36px" viewBox="0 0 120 36" style="enable-background:new 0 0 120 36;" xml:space="preserve">
<style type="text/css">
	.st0{fill:#111111;}
</style>
<path class="st0" d="M117.8,0H2.2C1,0,0,1,0,2.2v31.5C0,35,1,36,2.2,36h115.5c1.2,0,2.2-1,2.2-2.2V2.2C120,1,119,0,117.8,0z
	 M16.3,6.6c0.9-1.2,2.5-2,3.9-2c0.1,1.5-0.4,3.1-1.3,4.3c-0.9,1.1-2.4,2-3.9,1.9C14.7,9.2,15.5,7.5,16.3,6.6z M23.9,28.1
	c-1.1,1.6-2.3,3.2-4,3.2c-1.7,0-2.3-1.1-4.3-1.1s-2.7,1.1-4.3,1.1c-1.7,0-3.1-1.8-4.2-3.4c-2.3-3.4-4-9.5-1.6-13.5
	c1.1-2,3.2-3.4,5.4-3.4c1.7,0,3.3,1.2,4.3,1.2s2.8-1.4,5-1.2c0.8,0,3.2,0.3,4.8,2.7c-0.1,0.1-2.8,1.8-2.8,5.1c0,4.1,3.5,5.4,3.5,5.4
	C25.7,24.4,25.1,26.2,23.9,28.1z M54.4,31.2h-3.5V12.9h-0.1l-7.2,18.2h-2.8l-7.2-18.2h-0.1v18.2H30V6.4h4.3L42,26.2h0.1l7.8-19.7
	h4.4V31.2z M69.8,31.2v-3.1h-0.1c-0.9,2.2-2.8,3.4-5.5,3.4c-3.9,0-6.2-2.6-6.2-6.8V13.1h3.6V24c0,2.7,1.3,4.2,3.8,4.2
	c2.7,0,4.2-1.9,4.2-4.7V13.1h3.6l0.1,18.1H69.8z M83.2,31.4c-4.4,0-7.1-2.2-7.4-5.7h3.6c0.3,1.9,1.6,2.8,3.8,2.8s3.5-0.9,3.5-2.4
	c0-1.2-0.7-1.9-2.5-2.3l-2.8-0.7c-3.3-0.8-5-2.4-5-5.1c0-3.1,2.7-5.3,6.8-5.3s6.7,2.3,6.8,5.7h-3.3c-0.3-1.8-1.5-2.8-3.5-2.8
	s-3.3,0.9-3.3,2.4c0,1.1,0.8,1.9,2.7,2.3l2.8,0.7c3.6,0.8,5,2.3,5,4.9C90.3,29.1,87.3,31.4,83.2,31.4z M96.8,31.2h-3.6V13.1h3.6
	V31.2z M95.1,10.5c-1.2,0-2.1-0.9-2.1-2.2c0-1.2,0.9-2.2,2.1-2.2c1.2,0,2.1,0.9,2.1,2.2C97.2,9.6,96.3,10.5,95.1,10.5z M107.9,28.2
	c2.3,0,3.6-1.2,4.2-3.4h3.5c-0.4,3.8-3.3,6.5-7.6,6.5c-5.1,0-8.3-3.5-8.3-9.3c0-5.7,3.2-9.3,8.3-9.3c4.6,0,7.2,3,7.6,6.5l-3.5,0.1
	c-0.4-1.9-1.7-3.5-4.2-3.5c-2.8,0-4.7,2.4-4.7,6.2C103.3,25.9,105.1,28.2,107.9,28.2z"/>
</svg>
