<?xml version="1.0" encoding="utf-8"?>
<!-- Generator: Adobe Illustrator 24.1.0, SVG Export Plug-In . SVG Version: 6.00 Build 0)  -->
<svg version="1.1" id="Ebene_1" xmlns="http://www.w3.org/2000/svg" xmlns:xlink="http://www.w3.org/1999/xlink" x="0px" y="0px"
	 viewBox="0 0 16 16" style="enable-background:new 0 0 16 16;" xml:space="preserve">
<style type="text/css">
	.st0{fill:#111111;}
	.st1{fill:#FFFFFF;}
</style>
<path class="st0" d="M8,0C3.6,0,0,3.6,0,8s3.6,8,8,8s8-3.6,8-8S12.4,0,8,0L8,0z"/>
<g>
	<path class="st1" d="M9.3,3.8c-0.4,0.4-1,0.8-1.6,0.8C7.6,3.9,8,3.3,8.3,2.9c0.4-0.5,1-0.8,1.6-0.8C9.9,2.7,9.7,3.3,9.3,3.8
		L9.3,3.8z"/>
	<path class="st1" d="M9.9,4.7c0.3,0,1.3,0.1,2,1.1c-0.1,0.1-1.1,0.7-1.1,2.1c0,1.6,1.4,2.2,1.4,2.2c0,0.1-0.2,0.8-0.7,1.5
		c-0.4,0.7-0.9,1.3-1.6,1.3S8.8,12.4,8,12.4s-1.1,0.4-1.7,0.4c-0.7,0-1.3-0.7-1.7-1.4c-0.9-1.4-1.6-3.8-0.7-5.5
		c0.4-0.8,1.3-1.4,2.2-1.4c0.7,0,1.4,0.5,1.7,0.5C8.2,5.2,9,4.6,9.9,4.7L9.9,4.7z"/>
</g>
</svg>
